<?xml version="1.0" encoding="UTF-8" standalone="no"?>
<!-- Created with Inkscape (http://www.inkscape.org/) -->

<svg
   xmlns:dc="http://purl.org/dc/elements/1.1/"
   xmlns:cc="http://creativecommons.org/ns#"
   xmlns:rdf="http://www.w3.org/1999/02/22-rdf-syntax-ns#"
   xmlns:svg="http://www.w3.org/2000/svg"
   xmlns="http://www.w3.org/2000/svg"
   xmlns:sodipodi="http://sodipodi.sourceforge.net/DTD/sodipodi-0.dtd"
   xmlns:inkscape="http://www.inkscape.org/namespaces/inkscape"
   id="svg3004"
   version="1.1"
   inkscape:version="0.48.2 r9819"
   width="700"
   height="710"
   xml:space="preserve"
   sodipodi:docname="t46.tree.3.A.pdf"><metadata
     id="metadata3010"><rdf:RDF><cc:Work
         rdf:about=""><dc:format>image/svg+xml</dc:format><dc:type
           rdf:resource="http://purl.org/dc/dcmitype/StillImage" /><dc:title></dc:title></cc:Work></rdf:RDF></metadata><defs
     id="defs3008"><clipPath
       clipPathUnits="userSpaceOnUse"
       id="clipPath3020"><path
         d="M 0,845 0,0 595,0 595,845 0,845 z"
         id="path3022"
         inkscape:connector-curvature="0" /></clipPath><clipPath
       id="clipPath3511"
       clipPathUnits="userSpaceOnUse"><path
         id="path3513"
         d="M 0,792 0,0 612,0 612,792 0,792 z"
         inkscape:connector-curvature="0" /></clipPath></defs><sodipodi:namedview
     pagecolor="#ffffff"
     bordercolor="#666666"
     borderopacity="1"
     objecttolerance="10"
     gridtolerance="10"
     guidetolerance="10"
     inkscape:pageopacity="0"
     inkscape:pageshadow="2"
     inkscape:window-width="1920"
     inkscape:window-height="1032"
     id="namedview3006"
     showgrid="true"
     inkscape:zoom="1.0365007"
     inkscape:cx="116.63841"
     inkscape:cy="321.10461"
     inkscape:window-x="0"
     inkscape:window-y="0"
     inkscape:window-maximized="1"
     inkscape:current-layer="g3012"
     showguides="true"
     inkscape:guide-bbox="true"
     inkscape:snap-grids="false"><inkscape:grid
       type="xygrid"
       id="grid4938"
       empspacing="5"
       visible="true"
       enabled="true"
       snapvisiblegridlinesonly="true" /></sodipodi:namedview><g
     id="g3012"
     inkscape:groupmode="layer"
     inkscape:label="t46.tree.2"
     transform="matrix(1.25,0,0,-1.25,0,710)"><g
   id="g3014" /><text
   xml:space="preserve"
   style="font-size:18.6919117px;font-style:normal;font-variant:normal;font-weight:normal;font-stretch:normal;text-align:start;line-height:125%;letter-spacing:0px;word-spacing:0px;writing-mode:lr-tb;text-anchor:start;fill:#ff0000;fill-opacity:1;stroke:none;font-family:Sans;-inkscape-font-specification:Sans"
   x="290.00732"
   y="-12.041637"
   id="text3438"
   sodipodi:linespacing="125%"
   transform="scale(1.0821882,-0.9240537)"><tspan
     sodipodi:role="line"
     id="tspan3440"
     x="290.00732"
     y="-12.041637">?</tspan></text>

<g
   transform="matrix(0.99044629,0,0,0.98064414,-14.064067,-197.7856)"
   inkscape:label="t46.tree"
   id="g3503"><g
     id="g3505" /><g
     id="g3507"><g
       clip-path="url(#clipPath3511)"
       id="g3509"><g
         id="g3515"><path
           id="path3517"
           style="fill:none;stroke:#000000;stroke-width:0.5;stroke-linecap:square;stroke-linejoin:miter;stroke-miterlimit:10;stroke-opacity:1;stroke-dasharray:none"
           d="m 362.68,720.65 -5.73,-18.56"
           inkscape:connector-curvature="0" /><text
           id="text3519"
           transform="matrix(0.29476,0.95557,0.95557,-0.29476,368.33238,726.59836)"><tspan
             id="tspan3521"
             sodipodi:role="line"
             y="0"
             x="0 6.8353615 13.670723 19.706085 26.691446"
             style="font-size:9.9999876px;font-variant:normal;font-weight:normal;writing-mode:lr-tb;fill:#000000;fill-opacity:1;fill-rule:nonzero;stroke:none;font-family:Verdana;-inkscape-font-specification:Verdana">ASPCL</tspan></text>
<path
           id="path3523"
           style="fill:none;stroke:#000000;stroke-width:0.5;stroke-linecap:square;stroke-linejoin:miter;stroke-miterlimit:10;stroke-opacity:1;stroke-dasharray:none"
           d="m 356.95,702.09 -5.72,-18.55"
           inkscape:connector-curvature="0" /><path
           id="path3525"
           style="fill:none;stroke:#000000;stroke-width:0.5;stroke-linecap:square;stroke-linejoin:miter;stroke-miterlimit:10;stroke-opacity:1;stroke-dasharray:none"
           d="M 425.25,690.51 403.38,658.43"
           inkscape:connector-curvature="0" /><text
           id="text3527"
           transform="matrix(0.56332,0.82624,0.82624,-0.56332,431.96932,694.12726)"><tspan
             id="tspan3529"
             sodipodi:role="line"
             y="0"
             x="0 6.8342767 13.818554 21.33283 27.367107"
             style="font-size:10.00000954px;font-variant:normal;font-weight:normal;writing-mode:lr-tb;fill:#000000;fill-opacity:1;fill-rule:nonzero;stroke:none;font-family:Verdana;-inkscape-font-specification:Verdana">SCHPO</tspan></text>
<path
           id="path3531"
           style="fill:none;stroke:#000000;stroke-width:0.5;stroke-linecap:square;stroke-linejoin:miter;stroke-miterlimit:10;stroke-opacity:1;stroke-dasharray:none"
           d="m 369.82,655.44 c -7.85,3.79 -15.98,6.98 -24.31,9.55"
           inkscape:connector-curvature="0" /><path
           id="path3533"
           style="fill:none;stroke:#000000;stroke-width:0.5;stroke-linecap:square;stroke-linejoin:miter;stroke-miterlimit:10;stroke-opacity:1;stroke-dasharray:none"
           d="m 351.23,683.54 -5.72,-18.55"
           inkscape:connector-curvature="0" /><path
           id="path3535"
           style="fill:none;stroke:#000000;stroke-width:0.5;stroke-linecap:square;stroke-linejoin:miter;stroke-miterlimit:10;stroke-opacity:1;stroke-dasharray:none"
           d="m 369.82,655.44 c 7.86,-3.78 15.42,-8.14 22.62,-13.05"
           inkscape:connector-curvature="0" /><path
           id="path3537"
           style="fill:none;stroke:#000000;stroke-width:0.5;stroke-linecap:square;stroke-linejoin:miter;stroke-miterlimit:10;stroke-opacity:1;stroke-dasharray:none"
           d="M 403.38,658.43 392.44,642.39"
           inkscape:connector-curvature="0" /><path
           id="path3539"
           style="fill:none;stroke:#000000;stroke-width:0.5;stroke-linecap:square;stroke-linejoin:miter;stroke-miterlimit:10;stroke-opacity:1;stroke-dasharray:none"
           d="M 476.17,643.27 430.63,606.95"
           inkscape:connector-curvature="0" /><text
           id="text3541"
           transform="matrix(0.78183,0.62349,0.62349,-0.78183,483.57553,644.99255)"><tspan
             id="tspan3543"
             sodipodi:role="line"
             y="0"
             x="0 6.3245234 13.809046 19.97357 26.828093"
             style="font-size:9.99998951px;font-variant:normal;font-weight:normal;writing-mode:lr-tb;fill:#000000;fill-opacity:1;fill-rule:nonzero;stroke:none;font-family:Verdana;-inkscape-font-specification:Verdana">ENTBH</tspan></text>
<path
           id="path3545"
           style="fill:none;stroke:#000000;stroke-width:0.5;stroke-linecap:square;stroke-linejoin:miter;stroke-miterlimit:10;stroke-opacity:1;stroke-dasharray:none"
           d="m 390.85,619.44 c -9.09,7.26 -18.97,13.46 -29.45,18.51"
           inkscape:connector-curvature="0" /><path
           id="path3547"
           style="fill:none;stroke:#000000;stroke-width:0.5;stroke-linecap:square;stroke-linejoin:miter;stroke-miterlimit:10;stroke-opacity:1;stroke-dasharray:none"
           d="M 369.82,655.44 361.4,637.95"
           inkscape:connector-curvature="0" /><path
           id="path3549"
           style="fill:none;stroke:#000000;stroke-width:0.5;stroke-linecap:square;stroke-linejoin:miter;stroke-miterlimit:10;stroke-opacity:1;stroke-dasharray:none"
           d="m 390.85,619.44 c 9.09,-7.25 17.34,-15.5 24.59,-24.59"
           inkscape:connector-curvature="0" /><path
           id="path3551"
           style="fill:none;stroke:#000000;stroke-width:0.5;stroke-linecap:square;stroke-linejoin:miter;stroke-miterlimit:10;stroke-opacity:1;stroke-dasharray:none"
           d="m 430.63,606.95 -15.19,-12.1"
           inkscape:connector-curvature="0" /><path
           id="path3553"
           style="fill:none;stroke:#000000;stroke-width:0.5;stroke-linecap:square;stroke-linejoin:miter;stroke-miterlimit:10;stroke-opacity:1;stroke-dasharray:none"
           d="m 403.36,578.71 c -7.06,9.56 -15.33,18.15 -24.62,25.55"
           inkscape:connector-curvature="0" /><path
           id="path3555"
           style="fill:none;stroke:#000000;stroke-width:0.5;stroke-linecap:square;stroke-linejoin:miter;stroke-miterlimit:10;stroke-opacity:1;stroke-dasharray:none"
           d="M 390.85,619.44 378.74,604.26"
           inkscape:connector-curvature="0" /><path
           id="path3557"
           style="fill:none;stroke:#000000;stroke-width:0.5;stroke-linecap:square;stroke-linejoin:miter;stroke-miterlimit:10;stroke-opacity:1;stroke-dasharray:none"
           d="m 403.36,578.71 c 7.05,-9.56 12.82,-20 17.16,-31.05"
           inkscape:connector-curvature="0" /><path
           id="path3559"
           style="fill:none;stroke:#000000;stroke-width:0.5;stroke-linecap:square;stroke-linejoin:miter;stroke-miterlimit:10;stroke-opacity:1;stroke-dasharray:none"
           d="M 510.89,583.12 420.52,547.66"
           inkscape:connector-curvature="0" /><text
           id="text3561"
           transform="matrix(0.93087,0.36534,0.36534,-0.93087,519.04664,581.88937)"><tspan
             id="tspan3563"
             sodipodi:role="line"
             y="0"
             x="0 5.5663886 11.892774 16.099167 22.955551"
             style="font-size:9.9999609px;font-variant:normal;font-weight:normal;writing-mode:lr-tb;fill:#000000;fill-opacity:1;fill-rule:nonzero;stroke:none;font-family:Verdana;-inkscape-font-specification:Verdana">LEIBR</tspan></text>
<path
           id="path3565"
           style="fill:none;stroke:#000000;stroke-width:0.5;stroke-linecap:square;stroke-linejoin:miter;stroke-miterlimit:10;stroke-opacity:1;stroke-dasharray:none"
           d="m 346.5,602 c -16.28,8.22 -34.26,12.5 -52.5,12.5"
           inkscape:connector-curvature="0" /><path
           id="path3567"
           style="fill:none;stroke:#000000;stroke-width:0.5;stroke-linecap:square;stroke-linejoin:miter;stroke-miterlimit:10;stroke-opacity:1;stroke-dasharray:none"
           d="m 294,731 0,-116.5"
           inkscape:connector-curvature="0" /><text
           id="text3569"
           transform="matrix(0,-1,-1,0,290,761.80606)"><tspan
             id="tspan3571"
             sodipodi:role="line"
             y="0"
             x="0 7.7069702 11.91394 18.900909 26.60788"
             style="font-size:10px;font-variant:normal;font-weight:normal;writing-mode:lr-tb;fill:#000000;fill-opacity:1;fill-rule:nonzero;stroke:none;font-family:Verdana;-inkscape-font-specification:Verdana">DICDI</tspan></text>
<path
           id="path3573"
           style="fill:none;stroke:#000000;stroke-width:0.5;stroke-linecap:square;stroke-linejoin:miter;stroke-miterlimit:10;stroke-opacity:1;stroke-dasharray:none"
           d="m 346.5,602 c 16.28,-8.22 30.41,-20.15 41.24,-34.82"
           inkscape:connector-curvature="0" /><path
           id="path3575"
           style="fill:none;stroke:#000000;stroke-width:0.5;stroke-linecap:square;stroke-linejoin:miter;stroke-miterlimit:10;stroke-opacity:1;stroke-dasharray:none"
           d="M 403.36,578.71 387.74,567.18"
           inkscape:connector-curvature="0" /><path
           id="path3577"
           style="fill:none;stroke:#000000;stroke-width:0.5;stroke-linecap:square;stroke-linejoin:miter;stroke-miterlimit:10;stroke-opacity:1;stroke-dasharray:none"
           d="m 526.35,515.41 -116.18,-8.7"
           inkscape:connector-curvature="0" /><text
           id="text3579"
           transform="matrix(0.9972,0.07473,0.07473,-0.9972,533.27131,512.50543)"><tspan
             id="tspan3581"
             sodipodi:role="line"
             y="0"
             x="0 6.835474 13.790948 20.626421 26.791899"
             style="font-size:9.99996185px;font-variant:normal;font-weight:normal;writing-mode:lr-tb;fill:#000000;fill-opacity:1;fill-rule:nonzero;stroke:none;font-family:Verdana;-inkscape-font-specification:Verdana">ARATH</tspan></text>
<path
           id="path3583"
           style="fill:none;stroke:#000000;stroke-width:0.5;stroke-linecap:square;stroke-linejoin:miter;stroke-miterlimit:10;stroke-opacity:1;stroke-dasharray:none"
           d="m 386.22,528.35 c -8.05,24.45 -25.48,44.71 -48.47,56.32"
           inkscape:connector-curvature="0" /><path
           id="path3585"
           style="fill:none;stroke:#000000;stroke-width:0.5;stroke-linecap:square;stroke-linejoin:miter;stroke-miterlimit:10;stroke-opacity:1;stroke-dasharray:none"
           d="m 346.5,602 -8.75,-17.33"
           inkscape:connector-curvature="0" /><path
           id="path3587"
           style="fill:none;stroke:#000000;stroke-width:0.5;stroke-linecap:square;stroke-linejoin:miter;stroke-miterlimit:10;stroke-opacity:1;stroke-dasharray:none"
           d="m 410.17,506.71 -19.36,-1.45"
           inkscape:connector-curvature="0" /><path
           id="path3589"
           style="fill:none;stroke:#000000;stroke-width:0.5;stroke-linecap:square;stroke-linejoin:miter;stroke-miterlimit:10;stroke-opacity:1;stroke-dasharray:none"
           d="m 386.22,528.35 c 5.52,-16.78 6.36,-34.74 2.43,-51.95"
           inkscape:connector-curvature="0" /><path
           id="path3591"
           style="fill:none;stroke:#000000;stroke-width:0.5;stroke-linecap:square;stroke-linejoin:miter;stroke-miterlimit:10;stroke-opacity:1;stroke-dasharray:none"
           d="M 521.16,446.15 388.65,476.4"
           inkscape:connector-curvature="0" /><text
           id="text3593"
           transform="matrix(0.97493,-0.22252,-0.22252,-0.97493,526.93366,440.57571)"><tspan
             id="tspan3595"
             sodipodi:role="line"
             y="0"
             x="0 7.8749642 14.829927 20.984888 27.819851"
             style="font-size:10.00001812px;font-variant:normal;font-weight:normal;writing-mode:lr-tb;fill:#000000;fill-opacity:1;fill-rule:nonzero;stroke:none;font-family:Verdana;-inkscape-font-specification:Verdana">ORYSA</tspan></text>
<path
           id="path3597"
           style="fill:none;stroke:#000000;stroke-width:0.5;stroke-linecap:square;stroke-linejoin:miter;stroke-miterlimit:10;stroke-opacity:1;stroke-dasharray:none"
           d="m 371.26,490.03 c 1.12,10.87 -0.07,21.86 -3.48,32.25"
           inkscape:connector-curvature="0" /><path
           id="path3599"
           style="fill:none;stroke:#000000;stroke-width:0.5;stroke-linecap:square;stroke-linejoin:miter;stroke-miterlimit:10;stroke-opacity:1;stroke-dasharray:none"
           d="m 386.22,528.35 -18.44,-6.07"
           inkscape:connector-curvature="0" /><path
           id="path3601"
           style="fill:none;stroke:#000000;stroke-width:0.5;stroke-linecap:square;stroke-linejoin:miter;stroke-miterlimit:10;stroke-opacity:1;stroke-dasharray:none"
           d="m 371.26,490.03 c -1.13,-10.88 -4.53,-21.4 -10,-30.86"
           inkscape:connector-curvature="0" /><path
           id="path3603"
           style="fill:none;stroke:#000000;stroke-width:0.5;stroke-linecap:square;stroke-linejoin:miter;stroke-miterlimit:10;stroke-opacity:1;stroke-dasharray:none"
           d="M 495.78,381.5 361.26,459.17"
           inkscape:connector-curvature="0" /><text
           id="text3605"
           transform="matrix(0.86603,-0.5,-0.5,-0.86603,500.31178,374.84293)"><tspan
             id="tspan3607"
             sodipodi:role="line"
             y="0"
             x="0 7.7571011 11.964188 18.801285 24.368378"
             style="font-size:10.00004005px;font-variant:normal;font-weight:normal;writing-mode:lr-tb;fill:#000000;fill-opacity:1;fill-rule:nonzero;stroke:none;font-family:Verdana;-inkscape-font-specification:Verdana">GIALA</tspan></text>
<path
           id="path3609"
           style="fill:none;stroke:#000000;stroke-width:0.5;stroke-linecap:square;stroke-linejoin:miter;stroke-miterlimit:10;stroke-opacity:1;stroke-dasharray:none"
           d="M 395.09,288.07 344.55,393.04"
           inkscape:connector-curvature="0" /><text
           id="text3611"
           transform="matrix(0.43388,-0.90097,-0.90097,-0.43388,394.43085,280.05478)"><tspan
             id="tspan3613"
             sodipodi:role="line"
             y="0"
             x="0 6.8557758 13.691552 20.547327 27.403103"
             style="font-size:9.99999428px;font-variant:normal;font-weight:normal;writing-mode:lr-tb;fill:#000000;fill-opacity:1;fill-rule:nonzero;stroke:none;font-family:Verdana;-inkscape-font-specification:Verdana">BABBO</tspan></text>
<path
           id="path3615"
           style="fill:none;stroke:#000000;stroke-width:0.5;stroke-linecap:square;stroke-linejoin:miter;stroke-miterlimit:10;stroke-opacity:1;stroke-dasharray:none"
           d="m 259.27,267.6 5.79,38.4"
           inkscape:connector-curvature="0" /><text
           id="text3617"
           transform="matrix(0.14904,0.98883,0.98883,-0.14904,258.39819,237.64436)"><tspan
             id="tspan3619"
             sodipodi:role="line"
             y="0"
             x="0 6.0364532 11.602906 18.439358 25.27581"
             style="font-size:9.99998856px;font-variant:normal;font-weight:normal;writing-mode:lr-tb;fill:#000000;fill-opacity:1;fill-rule:nonzero;stroke:none;font-family:Verdana;-inkscape-font-specification:Verdana">PLAVI</tspan></text>
<path
           id="path3621"
           style="fill:none;stroke:#000000;stroke-width:0.5;stroke-linecap:square;stroke-linejoin:miter;stroke-miterlimit:10;stroke-opacity:1;stroke-dasharray:none"
           d="m 265.06,306 2.89,19.2"
           inkscape:connector-curvature="0" /><path
           id="path3623"
           style="fill:none;stroke:#000000;stroke-width:0.5;stroke-linecap:square;stroke-linejoin:miter;stroke-miterlimit:10;stroke-opacity:1;stroke-dasharray:none"
           d="m 267.95,325.2 2.9,19.2"
           inkscape:connector-curvature="0" /><path
           id="path3625"
           style="fill:none;stroke:#000000;stroke-width:0.5;stroke-linecap:square;stroke-linejoin:miter;stroke-miterlimit:10;stroke-opacity:1;stroke-dasharray:none"
           d="m 253.94,368.12 c 6.48,-2 13.1,-3.51 19.8,-4.52"
           inkscape:connector-curvature="0" /><path
           id="path3627"
           style="fill:none;stroke:#000000;stroke-width:0.5;stroke-linecap:square;stroke-linejoin:miter;stroke-miterlimit:10;stroke-opacity:1;stroke-dasharray:none"
           d="m 270.85,344.4 2.89,19.2"
           inkscape:connector-curvature="0" /><path
           id="path3629"
           style="fill:none;stroke:#000000;stroke-width:0.5;stroke-linecap:square;stroke-linejoin:miter;stroke-miterlimit:10;stroke-opacity:1;stroke-dasharray:none"
           d="m 253.94,368.12 c -6.48,2 -12.8,4.48 -18.91,7.42"
           inkscape:connector-curvature="0" /><path
           id="path3631"
           style="fill:none;stroke:#000000;stroke-width:0.5;stroke-linecap:square;stroke-linejoin:miter;stroke-miterlimit:10;stroke-opacity:1;stroke-dasharray:none"
           d="m 192.91,288.07 42.12,87.47"
           inkscape:connector-curvature="0" /><text
           id="text3633"
           transform="matrix(0.43388,0.90097,0.90097,-0.43388,182.52979,257.15301)"><tspan
             id="tspan3635"
             sodipodi:role="line"
             y="0"
             x="0 6.0345464 11.599093 18.43364 24.588184"
             style="font-size:9.99999428px;font-variant:normal;font-weight:normal;writing-mode:lr-tb;fill:#000000;fill-opacity:1;fill-rule:nonzero;stroke:none;font-family:Verdana;-inkscape-font-specification:Verdana">PLAYO</tspan></text>
<path
           id="path3637"
           style="fill:none;stroke:#000000;stroke-width:0.5;stroke-linecap:square;stroke-linejoin:miter;stroke-miterlimit:10;stroke-opacity:1;stroke-dasharray:none"
           d="m 285.29,381.83 c 8.7,-0.66 17.45,-0.33 26.07,0.97"
           inkscape:connector-curvature="0" /><path
           id="path3639"
           style="fill:none;stroke:#000000;stroke-width:0.5;stroke-linecap:square;stroke-linejoin:miter;stroke-miterlimit:10;stroke-opacity:1;stroke-dasharray:none"
           d="M 328.73,267.6 311.36,382.8"
           inkscape:connector-curvature="0" /><text
           id="text3641"
           transform="matrix(0.14904,-0.98883,-0.98883,-0.14904,326.25809,259.84625)"><tspan
             id="tspan3643"
             sodipodi:role="line"
             y="0"
             x="0 6.0361428 11.602286 18.438429 24.184572"
             style="font-size:9.99998856px;font-variant:normal;font-weight:normal;writing-mode:lr-tb;fill:#000000;fill-opacity:1;fill-rule:nonzero;stroke:none;font-family:Verdana;-inkscape-font-specification:Verdana">PLAFA</tspan></text>
<path
           id="path3645"
           style="fill:none;stroke:#000000;stroke-width:0.5;stroke-linecap:square;stroke-linejoin:miter;stroke-miterlimit:10;stroke-opacity:1;stroke-dasharray:none"
           d="m 285.29,381.83 c -8.69,0.65 -17.29,2.27 -25.63,4.85"
           inkscape:connector-curvature="0" /><path
           id="path3647"
           style="fill:none;stroke:#000000;stroke-width:0.5;stroke-linecap:square;stroke-linejoin:miter;stroke-miterlimit:10;stroke-opacity:1;stroke-dasharray:none"
           d="m 253.94,368.12 5.72,18.56"
           inkscape:connector-curvature="0" /><path
           id="path3649"
           style="fill:none;stroke:#000000;stroke-width:0.5;stroke-linecap:square;stroke-linejoin:miter;stroke-miterlimit:10;stroke-opacity:1;stroke-dasharray:none"
           d="m 312.05,402.61 c 8.34,1.58 16.43,4.24 24.07,7.92"
           inkscape:connector-curvature="0" /><path
           id="path3651"
           style="fill:none;stroke:#000000;stroke-width:0.5;stroke-linecap:square;stroke-linejoin:miter;stroke-miterlimit:10;stroke-opacity:1;stroke-dasharray:none"
           d="m 344.55,393.04 -8.43,17.49"
           inkscape:connector-curvature="0" /><path
           id="path3653"
           style="fill:none;stroke:#000000;stroke-width:0.5;stroke-linecap:square;stroke-linejoin:miter;stroke-miterlimit:10;stroke-opacity:1;stroke-dasharray:none"
           d="m 312.05,402.61 c -8.34,-1.58 -16.84,-2.06 -25.31,-1.42"
           inkscape:connector-curvature="0" /><path
           id="path3655"
           style="fill:none;stroke:#000000;stroke-width:0.5;stroke-linecap:square;stroke-linejoin:miter;stroke-miterlimit:10;stroke-opacity:1;stroke-dasharray:none"
           d="m 285.29,381.83 1.45,19.36"
           inkscape:connector-curvature="0" /><path
           id="path3657"
           style="fill:none;stroke:#000000;stroke-width:0.5;stroke-linecap:square;stroke-linejoin:miter;stroke-miterlimit:10;stroke-opacity:1;stroke-dasharray:none"
           d="m 329,428.67 c 6.49,3.28 12.49,7.45 17.83,12.4"
           inkscape:connector-curvature="0" /><path
           id="path3659"
           style="fill:none;stroke:#000000;stroke-width:0.5;stroke-linecap:square;stroke-linejoin:miter;stroke-miterlimit:10;stroke-opacity:1;stroke-dasharray:none"
           d="M 452.48,327.2 346.83,441.07"
           inkscape:connector-curvature="0" /><text
           id="text3661"
           transform="matrix(0.68017,-0.73305,-0.73305,-0.68017,454.59056,320.22777)"><tspan
             id="tspan3663"
             sodipodi:role="line"
             y="0"
             x="0 6.1642199 12.48844 18.65266 24.816879"
             style="font-size:9.99996758px;font-variant:normal;font-weight:normal;writing-mode:lr-tb;fill:#000000;fill-opacity:1;fill-rule:nonzero;stroke:none;font-family:Verdana;-inkscape-font-specification:Verdana">TETTH</tspan></text>
<path
           id="path3665"
           style="fill:none;stroke:#000000;stroke-width:0.5;stroke-linecap:square;stroke-linejoin:miter;stroke-miterlimit:10;stroke-opacity:1;stroke-dasharray:none"
           d="m 329,428.67 c -6.49,-3.28 -13.41,-5.63 -20.56,-6.98"
           inkscape:connector-curvature="0" /><path
           id="path3667"
           style="fill:none;stroke:#000000;stroke-width:0.5;stroke-linecap:square;stroke-linejoin:miter;stroke-miterlimit:10;stroke-opacity:1;stroke-dasharray:none"
           d="m 312.05,402.61 -3.61,19.08"
           inkscape:connector-curvature="0" /><path
           id="path3669"
           style="fill:none;stroke:#000000;stroke-width:0.5;stroke-linecap:square;stroke-linejoin:miter;stroke-miterlimit:10;stroke-opacity:1;stroke-dasharray:none"
           d="m 135.52,327.2 79.24,85.4"
           inkscape:connector-curvature="0" /><text
           id="text3671"
           transform="matrix(0.68017,0.73305,0.73305,-0.68017,115.77392,301.21585)"><tspan
             id="tspan3673"
             sodipodi:role="line"
             y="0"
             x="0 7.7566848 15.073371 19.280067 25.446758"
             style="font-size:9.99996758px;font-variant:normal;font-weight:normal;writing-mode:lr-tb;fill:#000000;fill-opacity:1;fill-rule:nonzero;stroke:none;font-family:Verdana;-inkscape-font-specification:Verdana">GUITH</tspan></text>
<path
           id="path3675"
           style="fill:none;stroke:#000000;stroke-width:0.5;stroke-linecap:square;stroke-linejoin:miter;stroke-miterlimit:10;stroke-opacity:1;stroke-dasharray:none"
           d="m 214.76,412.6 13.21,14.23"
           inkscape:connector-curvature="0" /><path
           id="path3677"
           style="fill:none;stroke:#000000;stroke-width:0.5;stroke-linecap:square;stroke-linejoin:miter;stroke-miterlimit:10;stroke-opacity:1;stroke-dasharray:none"
           d="m 66.84,446.15 56.79,12.96"
           inkscape:connector-curvature="0" /><text
           id="text3679"
           transform="matrix(0.97493,0.22252,0.22252,-0.97493,31.2868,433.77501)"><tspan
             id="tspan3681"
             sodipodi:role="line"
             y="0"
             x="0 7.5165739 14.833147 23.259722 30.096294"
             style="font-size:10.00001812px;font-variant:normal;font-weight:normal;writing-mode:lr-tb;fill:#000000;fill-opacity:1;fill-rule:nonzero;stroke:none;font-family:Verdana;-inkscape-font-specification:Verdana">HUMAN</tspan></text>
<path
           id="path3683"
           style="fill:none;stroke:#000000;stroke-width:0.5;stroke-linecap:square;stroke-linejoin:miter;stroke-miterlimit:10;stroke-opacity:1;stroke-dasharray:none"
           d="m 123.63,459.11 18.93,4.33"
           inkscape:connector-curvature="0" /><path
           id="path3685"
           style="fill:none;stroke:#000000;stroke-width:0.5;stroke-linecap:square;stroke-linejoin:miter;stroke-miterlimit:10;stroke-opacity:1;stroke-dasharray:none"
           d="m 158.46,487.84 c 0.51,-6.76 1.52,-13.47 3.03,-20.08"
           inkscape:connector-curvature="0" /><path
           id="path3687"
           style="fill:none;stroke:#000000;stroke-width:0.5;stroke-linecap:square;stroke-linejoin:miter;stroke-miterlimit:10;stroke-opacity:1;stroke-dasharray:none"
           d="m 142.56,463.44 18.93,4.32"
           inkscape:connector-curvature="0" /><path
           id="path3689"
           style="fill:none;stroke:#000000;stroke-width:0.5;stroke-linecap:square;stroke-linejoin:miter;stroke-miterlimit:10;stroke-opacity:1;stroke-dasharray:none"
           d="m 158.46,487.84 c -0.5,6.76 -0.5,13.56 0,20.32"
           inkscape:connector-curvature="0" /><path
           id="path3691"
           style="fill:none;stroke:#000000;stroke-width:0.5;stroke-linecap:square;stroke-linejoin:miter;stroke-miterlimit:10;stroke-opacity:1;stroke-dasharray:none"
           d="m 61.65,515.41 96.81,-7.25"
           inkscape:connector-curvature="0" /><text
           id="text3693"
           transform="matrix(0.9972,-0.07473,-0.07473,-0.9972,29.223128,514.42444)"><tspan
             id="tspan3695"
             sodipodi:role="line"
             y="0"
             x="0 6.9863834 14.502765 18.70916 25.695543"
             style="font-size:9.99996185px;font-variant:normal;font-weight:normal;writing-mode:lr-tb;fill:#000000;fill-opacity:1;fill-rule:nonzero;stroke:none;font-family:Verdana;-inkscape-font-specification:Verdana">CHICK</tspan></text>
<path
           id="path3697"
           style="fill:none;stroke:#000000;stroke-width:0.5;stroke-linecap:square;stroke-linejoin:miter;stroke-miterlimit:10;stroke-opacity:1;stroke-dasharray:none"
           d="m 111.83,643.27 45.54,-36.32"
           inkscape:connector-curvature="0" /><text
           id="text3699"
           transform="matrix(0.78183,-0.62349,-0.62349,-0.78183,83.513857,661.66879)"><tspan
             id="tspan3701"
             sodipodi:role="line"
             y="0"
             x="0 6.8534527 13.176907 20.660358 26.823812"
             style="font-size:9.99998951px;font-variant:normal;font-weight:normal;writing-mode:lr-tb;fill:#000000;fill-opacity:1;fill-rule:nonzero;stroke:none;font-family:Verdana;-inkscape-font-specification:Verdana">XENTR</tspan></text>
<path
           id="path3703"
           style="fill:none;stroke:#000000;stroke-width:0.5;stroke-linecap:square;stroke-linejoin:miter;stroke-miterlimit:10;stroke-opacity:1;stroke-dasharray:none"
           d="m 157.37,606.95 15.19,-12.1"
           inkscape:connector-curvature="0" /><path
           id="path3705"
           style="fill:none;stroke:#000000;stroke-width:0.5;stroke-linecap:square;stroke-linejoin:miter;stroke-miterlimit:10;stroke-opacity:1;stroke-dasharray:none"
           d="m 176.29,565.96 c -3.39,-5.87 -6.33,-11.99 -8.81,-18.3"
           inkscape:connector-curvature="0" /><path
           id="path3707"
           style="fill:none;stroke:#000000;stroke-width:0.5;stroke-linecap:square;stroke-linejoin:miter;stroke-miterlimit:10;stroke-opacity:1;stroke-dasharray:none"
           d="m 77.11,583.12 90.37,-35.46"
           inkscape:connector-curvature="0" /><text
           id="text3709"
           transform="matrix(0.93087,-0.36534,-0.36534,-0.93087,43.077237,592.0504)"><tspan
             id="tspan3711"
             sodipodi:role="line"
             y="0"
             x="0 8.4266977 15.263401 22.250105 27.996811"
             style="font-size:9.9999609px;font-variant:normal;font-weight:normal;writing-mode:lr-tb;fill:#000000;fill-opacity:1;fill-rule:nonzero;stroke:none;font-family:Verdana;-inkscape-font-specification:Verdana">MACFA</tspan></text>
<path
           id="path3713"
           style="fill:none;stroke:#000000;stroke-width:0.5;stroke-linecap:square;stroke-linejoin:miter;stroke-miterlimit:10;stroke-opacity:1;stroke-dasharray:none"
           d="m 176.29,565.96 c 3.39,5.87 7.22,11.48 11.45,16.78"
           inkscape:connector-curvature="0" /><path
           id="path3715"
           style="fill:none;stroke:#000000;stroke-width:0.5;stroke-linecap:square;stroke-linejoin:miter;stroke-miterlimit:10;stroke-opacity:1;stroke-dasharray:none"
           d="m 172.56,594.85 15.18,-12.11"
           inkscape:connector-curvature="0" /><path
           id="path3717"
           style="fill:none;stroke:#000000;stroke-width:0.5;stroke-linecap:square;stroke-linejoin:miter;stroke-miterlimit:10;stroke-opacity:1;stroke-dasharray:none"
           d="m 180.42,523.92 c -2.59,-11.35 -3.46,-23.02 -2.59,-34.63"
           inkscape:connector-curvature="0" /><path
           id="path3719"
           style="fill:none;stroke:#000000;stroke-width:0.5;stroke-linecap:square;stroke-linejoin:miter;stroke-miterlimit:10;stroke-opacity:1;stroke-dasharray:none"
           d="m 158.46,487.84 19.37,1.45"
           inkscape:connector-curvature="0" /><path
           id="path3721"
           style="fill:none;stroke:#000000;stroke-width:0.5;stroke-linecap:square;stroke-linejoin:miter;stroke-miterlimit:10;stroke-opacity:1;stroke-dasharray:none"
           d="m 180.42,523.92 c 2.59,11.35 6.87,22.25 12.69,32.33"
           inkscape:connector-curvature="0" /><path
           id="path3723"
           style="fill:none;stroke:#000000;stroke-width:0.5;stroke-linecap:square;stroke-linejoin:miter;stroke-miterlimit:10;stroke-opacity:1;stroke-dasharray:none"
           d="m 176.29,565.96 16.82,-9.71"
           inkscape:connector-curvature="0" /><path
           id="path3725"
           style="fill:none;stroke:#000000;stroke-width:0.5;stroke-linecap:square;stroke-linejoin:miter;stroke-miterlimit:10;stroke-opacity:1;stroke-dasharray:none"
           d="m 198,483.53 c 1.81,-12 5.85,-23.56 11.92,-34.07"
           inkscape:connector-curvature="0" /><path
           id="path3727"
           style="fill:none;stroke:#000000;stroke-width:0.5;stroke-linecap:square;stroke-linejoin:miter;stroke-miterlimit:10;stroke-opacity:1;stroke-dasharray:none"
           d="m 92.22,381.5 117.7,67.96"
           inkscape:connector-curvature="0" /><text
           id="text3729"
           transform="matrix(0.86603,0.5,0.5,-0.86603,76.499247,368.38561)"><tspan
             id="tspan3731"
             sodipodi:role="line"
             y="0"
             x="0 6.9556375 13.791275"
             style="font-size:10.00004005px;font-variant:normal;font-weight:normal;writing-mode:lr-tb;fill:#000000;fill-opacity:1;fill-rule:nonzero;stroke:none;font-family:Verdana;-inkscape-font-specification:Verdana">RAT</tspan></text>
<path
           id="path3733"
           style="fill:none;stroke:#000000;stroke-width:0.5;stroke-linecap:square;stroke-linejoin:miter;stroke-miterlimit:10;stroke-opacity:1;stroke-dasharray:none"
           d="m 198,483.53 c -1.81,12 -1.35,24.24 1.35,36.07"
           inkscape:connector-curvature="0" /><path
           id="path3735"
           style="fill:none;stroke:#000000;stroke-width:0.5;stroke-linecap:square;stroke-linejoin:miter;stroke-miterlimit:10;stroke-opacity:1;stroke-dasharray:none"
           d="m 180.42,523.92 18.93,-4.32"
           inkscape:connector-curvature="0" /><path
           id="path3737"
           style="fill:none;stroke:#000000;stroke-width:0.5;stroke-linecap:square;stroke-linejoin:miter;stroke-miterlimit:10;stroke-opacity:1;stroke-dasharray:none"
           d="m 225.33,461.71 c 4.09,-7.72 9.44,-14.7 15.84,-20.64"
           inkscape:connector-curvature="0" /><path
           id="path3739"
           style="fill:none;stroke:#000000;stroke-width:0.5;stroke-linecap:square;stroke-linejoin:miter;stroke-miterlimit:10;stroke-opacity:1;stroke-dasharray:none"
           d="m 227.97,426.83 13.2,14.24"
           inkscape:connector-curvature="0" /><path
           id="path3741"
           style="fill:none;stroke:#000000;stroke-width:0.5;stroke-linecap:square;stroke-linejoin:miter;stroke-miterlimit:10;stroke-opacity:1;stroke-dasharray:none"
           d="m 225.33,461.71 c -4.08,7.72 -6.83,16.08 -8.13,24.71"
           inkscape:connector-curvature="0" /><path
           id="path3743"
           style="fill:none;stroke:#000000;stroke-width:0.5;stroke-linecap:square;stroke-linejoin:miter;stroke-miterlimit:10;stroke-opacity:1;stroke-dasharray:none"
           d="m 198,483.53 19.2,2.89"
           inkscape:connector-curvature="0" /><path
           id="path3745"
           style="fill:none;stroke:#000000;stroke-width:0.5;stroke-linecap:square;stroke-linejoin:miter;stroke-miterlimit:10;stroke-opacity:1;stroke-dasharray:none"
           d="m 310.3,442.08 c 22.75,6.63 39.21,26.37 41.64,49.94"
           inkscape:connector-curvature="0" /><path
           id="path3747"
           style="fill:none;stroke:#000000;stroke-width:0.5;stroke-linecap:square;stroke-linejoin:miter;stroke-miterlimit:10;stroke-opacity:1;stroke-dasharray:none"
           d="m 371.26,490.03 -19.32,1.99"
           inkscape:connector-curvature="0" /><path
           id="path3749"
           style="fill:none;stroke:#000000;stroke-width:0.5;stroke-linecap:square;stroke-linejoin:miter;stroke-miterlimit:10;stroke-opacity:1;stroke-dasharray:none"
           d="M 329,428.67 320.25,446"
           inkscape:connector-curvature="0" /><path
           id="path3751"
           style="fill:none;stroke:#000000;stroke-width:0.5;stroke-linecap:square;stroke-linejoin:miter;stroke-miterlimit:10;stroke-opacity:1;stroke-dasharray:none"
           d="m 310.3,442.08 c -26.55,-7.74 -54.88,4.25 -67.8,28.7"
           inkscape:connector-curvature="0" /><path
           id="path3753"
           style="fill:none;stroke:#000000;stroke-width:0.5;stroke-linecap:square;stroke-linejoin:miter;stroke-miterlimit:10;stroke-opacity:1;stroke-dasharray:none"
           d="m 225.33,461.71 17.17,9.07"
           inkscape:connector-curvature="0" /><path
           id="path3755"
           style="fill:none;stroke:#000000;stroke-width:0.5;stroke-linecap:square;stroke-linejoin:miter;stroke-miterlimit:10;stroke-opacity:1;stroke-dasharray:none"
           d="m 268.73,550.48 c -2.62,-1.26 -5.14,-2.71 -7.54,-4.35"
           inkscape:connector-curvature="0" /><path
           id="path3757"
           style="fill:none;stroke:#000000;stroke-width:0.5;stroke-linecap:square;stroke-linejoin:miter;stroke-miterlimit:10;stroke-opacity:1;stroke-dasharray:none"
           d="M 162.75,690.51 261.19,546.13"
           inkscape:connector-curvature="0" /><text
           id="text3759"
           transform="matrix(0.56332,-0.82624,-0.82624,-0.56332,139.81957,717.91238)"><tspan
             id="tspan3761"
             sodipodi:role="line"
             y="0"
             x="0 7.7044973 14.658995 22.533491 28.857988"
             style="font-size:10.00000954px;font-variant:normal;font-weight:normal;writing-mode:lr-tb;fill:#000000;fill-opacity:1;fill-rule:nonzero;stroke:none;font-family:Verdana;-inkscape-font-specification:Verdana">DROER</tspan></text>
<path
           id="path3763"
           style="fill:none;stroke:#000000;stroke-width:0.5;stroke-linecap:square;stroke-linejoin:miter;stroke-miterlimit:10;stroke-opacity:1;stroke-dasharray:none"
           d="m 268.73,550.48 c 2.61,1.26 5.32,2.33 8.1,3.18"
           inkscape:connector-curvature="0" /><path
           id="path3765"
           style="fill:none;stroke:#000000;stroke-width:0.5;stroke-linecap:square;stroke-linejoin:miter;stroke-miterlimit:10;stroke-opacity:1;stroke-dasharray:none"
           d="M 225.32,720.65 276.83,553.66"
           inkscape:connector-curvature="0" /><text
           id="text3767"
           transform="matrix(0.29476,-0.95557,-0.95557,-0.29476,210.75231,755.50187)"><tspan
             id="tspan3769"
             sodipodi:role="line"
             y="0"
             x="0 7.7052402 14.660481 22.535721 30.96096"
             style="font-size:9.9999876px;font-variant:normal;font-weight:normal;writing-mode:lr-tb;fill:#000000;fill-opacity:1;fill-rule:nonzero;stroke:none;font-family:Verdana;-inkscape-font-specification:Verdana">DROME</tspan></text>
<path
           id="path3771"
           style="fill:none;stroke:#000000;stroke-width:0.5;stroke-linecap:square;stroke-linejoin:miter;stroke-miterlimit:10;stroke-opacity:1;stroke-dasharray:none"
           d="m 257.74,484.09 c 7.24,-18.86 27.73,-29.03 47.13,-23.37"
           inkscape:connector-curvature="0" /><path
           id="path3773"
           style="fill:none;stroke:#000000;stroke-width:0.5;stroke-linecap:square;stroke-linejoin:miter;stroke-miterlimit:10;stroke-opacity:1;stroke-dasharray:none"
           d="m 310.3,442.08 -5.43,18.64"
           inkscape:connector-curvature="0" /><path
           id="path3775"
           style="fill:none;stroke:#000000;stroke-width:0.5;stroke-linecap:square;stroke-linejoin:miter;stroke-miterlimit:10;stroke-opacity:1;stroke-dasharray:none"
           d="m 257.74,484.09 c -7.23,18.87 1.21,40.13 19.41,48.9"
           inkscape:connector-curvature="0" /><path
           id="path3777"
           style="fill:none;stroke:#000000;stroke-width:0.5;stroke-linecap:square;stroke-linejoin:miter;stroke-miterlimit:10;stroke-opacity:1;stroke-dasharray:none"
           d="m 268.73,550.48 8.42,-17.49"
           inkscape:connector-curvature="0" /><path
           id="path3779"
           style="fill:none;stroke:#000000;stroke-width:0.5;stroke-linecap:square;stroke-linejoin:miter;stroke-miterlimit:10;stroke-opacity:1;stroke-dasharray:none"
           d="m 257.74,484.09 18.13,6.96"
           inkscape:connector-curvature="0" /><path
           id="path3781"
           style="fill:none;stroke:#000000;stroke-width:0.5;stroke-linecap:square;stroke-linejoin:miter;stroke-miterlimit:10;stroke-opacity:1;stroke-dasharray:none"
           d="M 275.87,491.05 294,498"
           inkscape:connector-curvature="0" /></g></g></g></g><path
   sodipodi:type="arc"
   style="fill:#000000;fill-opacity:1;stroke:#000000;stroke-opacity:1"
   id="path5016"
   sodipodi:cx="51.615982"
   sodipodi:cy="41.8866"
   sodipodi:rx="7.2358851"
   sodipodi:ry="7.2358851"
   d="m 58.851867,41.8866 a 7.2358851,7.2358851 0 1 1 -14.47177,0 7.2358851,7.2358851 0 1 1 14.47177,0 z"
   transform="matrix(0.8,0,0,-0.8,81.757397,550.07893)" /><path
   transform="matrix(0.8,0,0,-0.8,21.554832,490.64819)"
   d="m 58.851867,41.8866 a 7.2358851,7.2358851 0 1 1 -14.47177,0 7.2358851,7.2358851 0 1 1 14.47177,0 z"
   sodipodi:ry="7.2358851"
   sodipodi:rx="7.2358851"
   sodipodi:cy="41.8866"
   sodipodi:cx="51.615982"
   id="path5018"
   style="fill:#000000;fill-opacity:1;stroke:#000000;stroke-opacity:1"
   sodipodi:type="arc" /><path
   sodipodi:type="arc"
   style="fill:#000000;fill-opacity:1;stroke:#000000;stroke-opacity:1"
   id="path5020"
   sodipodi:cx="51.615982"
   sodipodi:cy="41.8866"
   sodipodi:rx="7.2358851"
   sodipodi:ry="7.2358851"
   d="m 58.851867,41.8866 a 7.2358851,7.2358851 0 1 1 -14.47177,0 7.2358851,7.2358851 0 1 1 14.47177,0 z"
   transform="matrix(0.8,0,0,-0.8,-19.352039,423.49918)" /><path
   transform="matrix(0.8,0,0,-0.8,-34.016766,344.00092)"
   d="m 58.851867,41.8866 a 7.2358851,7.2358851 0 1 1 -14.47177,0 7.2358851,7.2358851 0 1 1 14.47177,0 z"
   sodipodi:ry="7.2358851"
   sodipodi:rx="7.2358851"
   sodipodi:cy="41.8866"
   sodipodi:cx="51.615982"
   id="path5022"
   style="fill:#000000;fill-opacity:1;stroke:#000000;stroke-opacity:1"
   sodipodi:type="arc" /><path
   sodipodi:type="arc"
   style="fill:#000000;fill-opacity:1;stroke:#000000;stroke-opacity:1"
   id="path5024"
   sodipodi:cx="51.615982"
   sodipodi:cy="41.8866"
   sodipodi:rx="7.2358851"
   sodipodi:ry="7.2358851"
   d="m 58.851867,41.8866 a 7.2358851,7.2358851 0 1 1 -14.47177,0 7.2358851,7.2358851 0 1 1 14.47177,0 z"
   transform="matrix(0.8,0,0,-0.8,-32.47311,260.64352)" /><path
   transform="matrix(0.8,0,0,-0.8,9.977417,190.40719)"
   d="m 58.851867,41.8866 a 7.2358851,7.2358851 0 1 1 -14.47177,0 7.2358851,7.2358851 0 1 1 14.47177,0 z"
   sodipodi:ry="7.2358851"
   sodipodi:rx="7.2358851"
   sodipodi:cy="41.8866"
   sodipodi:cx="51.615982"
   id="path5026"
   style="fill:#000000;fill-opacity:1;stroke:#000000;stroke-opacity:1"
   sodipodi:type="arc" /><path
   sodipodi:type="arc"
   style="fill:#000000;fill-opacity:1;stroke:#000000;stroke-opacity:1"
   id="path5028"
   sodipodi:cx="51.615982"
   sodipodi:cy="41.8866"
   sodipodi:rx="7.2358851"
   sodipodi:ry="7.2358851"
   d="m 58.851867,41.8866 a 7.2358851,7.2358851 0 1 1 -14.47177,0 7.2358851,7.2358851 0 1 1 14.47177,0 z"
   transform="matrix(0.8,0,0,-0.8,50.884288,124.80183)" /><path
   transform="matrix(0.8,0,0,-0.8,118.80513,80.807648)"
   d="m 58.851867,41.8866 a 7.2358851,7.2358851 0 1 1 -14.47177,0 7.2358851,7.2358851 0 1 1 14.47177,0 z"
   sodipodi:ry="7.2358851"
   sodipodi:rx="7.2358851"
   sodipodi:cy="41.8866"
   sodipodi:cx="51.615982"
   id="path5030"
   style="fill:#000000;fill-opacity:1;stroke:#000000;stroke-opacity:1"
   sodipodi:type="arc" /><path
   sodipodi:type="arc"
   style="fill:#000000;fill-opacity:1;stroke:#000000;stroke-opacity:1"
   id="path5032"
   sodipodi:cx="51.615982"
   sodipodi:cy="41.8866"
   sodipodi:rx="7.2358851"
   sodipodi:ry="7.2358851"
   d="m 58.851867,41.8866 a 7.2358851,7.2358851 0 1 1 -14.47177,0 7.2358851,7.2358851 0 1 1 14.47177,0 z"
   transform="matrix(0.8,0,0,-0.8,195.98791,57.652815)" /><path
   transform="matrix(0.8,0,0,-0.8,358.84357,73.08937)"
   d="m 58.851867,41.8866 a 7.2358851,7.2358851 0 1 1 -14.47177,0 7.2358851,7.2358851 0 1 1 14.47177,0 z"
   sodipodi:ry="7.2358851"
   sodipodi:rx="7.2358851"
   sodipodi:cy="41.8866"
   sodipodi:cx="51.615982"
   id="path5034"
   style="fill:#000000;fill-opacity:1;stroke:#000000;stroke-opacity:1"
   sodipodi:type="arc" /><path
   sodipodi:type="arc"
   style="fill:#000000;fill-opacity:1;stroke:#000000;stroke-opacity:1"
   id="path5036"
   sodipodi:cx="51.615982"
   sodipodi:cy="41.8866"
   sodipodi:rx="7.2358851"
   sodipodi:ry="7.2358851"
   d="m 58.851867,41.8866 a 7.2358851,7.2358851 0 1 1 -14.47177,0 7.2358851,7.2358851 0 1 1 14.47177,0 z"
   transform="matrix(0.8,0,0,-0.8,425.22076,120.17086)" /><path
   transform="matrix(0.8,0,0,-0.8,476.16139,186.54805)"
   d="m 58.851867,41.8866 a 7.2358851,7.2358851 0 1 1 -14.47177,0 7.2358851,7.2358851 0 1 1 14.47177,0 z"
   sodipodi:ry="7.2358851"
   sodipodi:rx="7.2358851"
   sodipodi:cy="41.8866"
   sodipodi:cx="51.615982"
   id="path5038"
   style="fill:#000000;fill-opacity:1;stroke:#000000;stroke-opacity:1"
   sodipodi:type="arc" /><path
   sodipodi:type="arc"
   style="fill:#000000;fill-opacity:1;stroke:#000000;stroke-opacity:1"
   id="path5040"
   sodipodi:cx="51.615982"
   sodipodi:cy="41.8866"
   sodipodi:rx="7.2358851"
   sodipodi:ry="7.2358851"
   d="m 58.851867,41.8866 a 7.2358851,7.2358851 0 1 1 -14.47177,0 7.2358851,7.2358851 0 1 1 14.47177,0 z"
   transform="matrix(0.8,0,0,-0.8,508.57816,261.41534)" /><path
   transform="matrix(0.8,0,0,-0.8,513.98095,344.00091)"
   d="m 58.851867,41.8866 a 7.2358851,7.2358851 0 1 1 -14.47177,0 7.2358851,7.2358851 0 1 1 14.47177,0 z"
   sodipodi:ry="7.2358851"
   sodipodi:rx="7.2358851"
   sodipodi:cy="41.8866"
   sodipodi:cx="51.615982"
   id="path5042"
   style="fill:#000000;fill-opacity:1;stroke:#000000;stroke-opacity:1"
   sodipodi:type="arc" /><path
   sodipodi:type="arc"
   style="fill:#000000;fill-opacity:1;stroke:#000000;stroke-opacity:1"
   id="path5044"
   sodipodi:cx="51.615982"
   sodipodi:cy="41.8866"
   sodipodi:rx="7.2358851"
   sodipodi:ry="7.2358851"
   d="m 58.851867,41.8866 a 7.2358851,7.2358851 0 1 1 -14.47177,0 7.2358851,7.2358851 0 1 1 14.47177,0 z"
   transform="matrix(0.8,0,0,-0.8,493.91342,425.04282)" /><path
   transform="matrix(0.8,0,0,-0.8,456.09386,497.59463)"
   d="m 58.851867,41.8866 a 7.2358851,7.2358851 0 1 1 -14.47177,0 7.2358851,7.2358851 0 1 1 14.47177,0 z"
   sodipodi:ry="7.2358851"
   sodipodi:rx="7.2358851"
   sodipodi:cy="41.8866"
   sodipodi:cx="51.615982"
   id="path5046"
   style="fill:#000000;fill-opacity:1;stroke:#000000;stroke-opacity:1"
   sodipodi:type="arc" /><path
   sodipodi:type="arc"
   style="fill:#000000;fill-opacity:1;stroke:#000000;stroke-opacity:1"
   id="path5048"
   sodipodi:cx="51.615982"
   sodipodi:cy="41.8866"
   sodipodi:rx="7.2358851"
   sodipodi:ry="7.2358851"
   d="m 58.851867,41.8866 a 7.2358851,7.2358851 0 1 1 -14.47177,0 7.2358851,7.2358851 0 1 1 14.47177,0 z"
   transform="matrix(0.8,0,0,-0.8,395.11947,553.16623)" /><path
   transform="matrix(0.8,0,0,-0.8,321.02401,586.35482)"
   d="m 58.851867,41.8866 a 7.2358851,7.2358851 0 1 1 -14.47177,0 7.2358851,7.2358851 0 1 1 14.47177,0 z"
   sodipodi:ry="7.2358851"
   sodipodi:rx="7.2358851"
   sodipodi:cy="41.8866"
   sodipodi:cx="51.615982"
   id="path5050"
   style="fill:#000000;fill-opacity:1;stroke:#000000;stroke-opacity:1"
   sodipodi:type="arc" /><path
   sodipodi:type="arc"
   style="fill:#000000;fill-opacity:1;stroke:#000000;stroke-opacity:1"
   id="path5052"
   sodipodi:cx="51.615982"
   sodipodi:cy="41.8866"
   sodipodi:rx="7.2358851"
   sodipodi:ry="7.2358851"
   d="m 58.851867,41.8866 a 7.2358851,7.2358851 0 1 1 -14.47177,0 7.2358851,7.2358851 0 1 1 14.47177,0 z"
   transform="matrix(0.8,0,0,-0.8,235.35113,592.69848)" /><path
   transform="matrix(0.8,0,0,-0.8,153.53739,585.63934)"
   d="m 58.851867,41.8866 a 7.2358851,7.2358851 0 1 1 -14.47177,0 7.2358851,7.2358851 0 1 1 14.47177,0 z"
   sodipodi:ry="7.2358851"
   sodipodi:rx="7.2358851"
   sodipodi:cy="41.8866"
   sodipodi:cx="51.615982"
   id="path5054"
   style="fill:#000000;fill-opacity:1;stroke:#000000;stroke-opacity:1"
   sodipodi:type="arc" /></g></svg>